<svg width="74" height="13" viewBox="0 0 74 13" fill="none" xmlns="http://www.w3.org/2000/svg">
<path d="M3.48242 10H2.5332V3.89453C2.5332 3.38672 2.54883 2.90625 2.58008 2.45312C2.49805 2.53516 2.40625 2.62109 2.30469 2.71094C2.20312 2.80078 1.73828 3.18164 0.910156 3.85352L0.394531 3.18555L2.66211 1.43359H3.48242V10ZM12.0547 3.44922C12.0547 3.99609 11.9004 4.44336 11.5918 4.79102C11.2871 5.13867 10.8535 5.37109 10.291 5.48828V5.53516C10.9785 5.62109 11.4883 5.83984 11.8203 6.19141C12.1523 6.54297 12.3184 7.00391 12.3184 7.57422C12.3184 8.39062 12.0352 9.01953 11.4688 9.46094C10.9023 9.89844 10.0977 10.1172 9.05469 10.1172C8.60156 10.1172 8.18555 10.082 7.80664 10.0117C7.43164 9.94531 7.06641 9.82617 6.71094 9.6543V8.72852C7.08203 8.91211 7.47656 9.05273 7.89453 9.15039C8.31641 9.24414 8.71484 9.29102 9.08984 9.29102C10.5703 9.29102 11.3105 8.71094 11.3105 7.55078C11.3105 6.51172 10.4941 5.99219 8.86133 5.99219H8.01758V5.1543H8.87305C9.54102 5.1543 10.0703 5.00781 10.4609 4.71484C10.8516 4.41797 11.0469 4.00781 11.0469 3.48438C11.0469 3.06641 10.9023 2.73828 10.6133 2.5C10.3281 2.26172 9.93945 2.14258 9.44727 2.14258C9.07227 2.14258 8.71875 2.19336 8.38672 2.29492C8.05469 2.39648 7.67578 2.58398 7.25 2.85742L6.75781 2.20117C7.10938 1.92383 7.51367 1.70703 7.9707 1.55078C8.43164 1.39062 8.91602 1.31055 9.42383 1.31055C10.2559 1.31055 10.9023 1.50195 11.3633 1.88477C11.8242 2.26367 12.0547 2.78516 12.0547 3.44922ZM21.125 10L20.9316 9.08594H20.8848C20.5645 9.48828 20.2441 9.76172 19.9238 9.90625C19.6074 10.0469 19.2109 10.1172 18.7344 10.1172C18.0977 10.1172 17.5977 9.95312 17.2344 9.625C16.875 9.29688 16.6953 8.83008 16.6953 8.22461C16.6953 6.92773 17.7324 6.24805 19.8066 6.18555L20.8965 6.15039V5.75195C20.8965 5.24805 20.7871 4.87695 20.5684 4.63867C20.3535 4.39648 20.0078 4.27539 19.5312 4.27539C18.9961 4.27539 18.3906 4.43945 17.7148 4.76758L17.416 4.02344C17.7324 3.85156 18.0781 3.7168 18.4531 3.61914C18.832 3.52148 19.2109 3.47266 19.5898 3.47266C20.3555 3.47266 20.9219 3.64258 21.2891 3.98242C21.6602 4.32227 21.8457 4.86719 21.8457 5.61719V10H21.125ZM18.9277 9.31445C19.5332 9.31445 20.0078 9.14844 20.3516 8.81641C20.6992 8.48438 20.873 8.01953 20.873 7.42188V6.8418L19.9004 6.88281C19.127 6.91016 18.5684 7.03125 18.2246 7.24609C17.8848 7.45703 17.7148 7.78711 17.7148 8.23633C17.7148 8.58789 17.8203 8.85547 18.0312 9.03906C18.2461 9.22266 18.5449 9.31445 18.9277 9.31445ZM25.2617 10L22.8242 3.57812H23.8672L25.25 7.38672C25.5625 8.27734 25.7461 8.85547 25.8008 9.12109H25.8477C25.8906 8.91406 26.0254 8.48633 26.252 7.83789C26.4824 7.18555 26.9961 5.76562 27.793 3.57812H28.8359L26.3984 10H25.2617ZM33.8164 10L33.623 9.08594H33.5762C33.2559 9.48828 32.9355 9.76172 32.6152 9.90625C32.2988 10.0469 31.9023 10.1172 31.4258 10.1172C30.7891 10.1172 30.2891 9.95312 29.9258 9.625C29.5664 9.29688 29.3867 8.83008 29.3867 8.22461C29.3867 6.92773 30.4238 6.24805 32.498 6.18555L33.5879 6.15039V5.75195C33.5879 5.24805 33.4785 4.87695 33.2598 4.63867C33.0449 4.39648 32.6992 4.27539 32.2227 4.27539C31.6875 4.27539 31.082 4.43945 30.4062 4.76758L30.1074 4.02344C30.4238 3.85156 30.7695 3.7168 31.1445 3.61914C31.5234 3.52148 31.9023 3.47266 32.2812 3.47266C33.0469 3.47266 33.6133 3.64258 33.9805 3.98242C34.3516 4.32227 34.5371 4.86719 34.5371 5.61719V10H33.8164ZM31.6191 9.31445C32.2246 9.31445 32.6992 9.14844 33.043 8.81641C33.3906 8.48438 33.5645 8.01953 33.5645 7.42188V6.8418L32.5918 6.88281C31.8184 6.91016 31.2598 7.03125 30.916 7.24609C30.5762 7.45703 30.4062 7.78711 30.4062 8.23633C30.4062 8.58789 30.5117 8.85547 30.7227 9.03906C30.9375 9.22266 31.2363 9.31445 31.6191 9.31445ZM37.5195 10H36.5469V0.882812H37.5195V10ZM40.5547 10H39.582V3.57812H40.5547V10ZM39.5 1.83789C39.5 1.61523 39.5547 1.45312 39.6641 1.35156C39.7734 1.24609 39.9102 1.19336 40.0742 1.19336C40.2305 1.19336 40.3652 1.24609 40.4785 1.35156C40.5918 1.45703 40.6484 1.61914 40.6484 1.83789C40.6484 2.05664 40.5918 2.2207 40.4785 2.33008C40.3652 2.43555 40.2305 2.48828 40.0742 2.48828C39.9102 2.48828 39.7734 2.43555 39.6641 2.33008C39.5547 2.2207 39.5 2.05664 39.5 1.83789ZM46.5664 10L46.373 9.08594H46.3262C46.0059 9.48828 45.6855 9.76172 45.3652 9.90625C45.0488 10.0469 44.6523 10.1172 44.1758 10.1172C43.5391 10.1172 43.0391 9.95312 42.6758 9.625C42.3164 9.29688 42.1367 8.83008 42.1367 8.22461C42.1367 6.92773 43.1738 6.24805 45.248 6.18555L46.3379 6.15039V5.75195C46.3379 5.24805 46.2285 4.87695 46.0098 4.63867C45.7949 4.39648 45.4492 4.27539 44.9727 4.27539C44.4375 4.27539 43.832 4.43945 43.1562 4.76758L42.8574 4.02344C43.1738 3.85156 43.5195 3.7168 43.8945 3.61914C44.2734 3.52148 44.6523 3.47266 45.0312 3.47266C45.7969 3.47266 46.3633 3.64258 46.7305 3.98242C47.1016 4.32227 47.2871 4.86719 47.2871 5.61719V10H46.5664ZM44.3691 9.31445C44.9746 9.31445 45.4492 9.14844 45.793 8.81641C46.1406 8.48438 46.3145 8.01953 46.3145 7.42188V6.8418L45.3418 6.88281C44.5684 6.91016 44.0098 7.03125 43.666 7.24609C43.3262 7.45703 43.1562 7.78711 43.1562 8.23633C43.1562 8.58789 43.2617 8.85547 43.4727 9.03906C43.6875 9.22266 43.9863 9.31445 44.3691 9.31445ZM51.8633 10.1172C50.9336 10.1172 50.2129 9.83203 49.7012 9.26172C49.1934 8.6875 48.9395 7.87695 48.9395 6.83008C48.9395 5.75586 49.1973 4.92578 49.7129 4.33984C50.2324 3.75391 50.9707 3.46094 51.9277 3.46094C52.2363 3.46094 52.5449 3.49414 52.8535 3.56055C53.1621 3.62695 53.4043 3.70508 53.5801 3.79492L53.2812 4.62109C53.0664 4.53516 52.832 4.46484 52.5781 4.41016C52.3242 4.35156 52.0996 4.32227 51.9043 4.32227C50.5996 4.32227 49.9473 5.1543 49.9473 6.81836C49.9473 7.60742 50.1055 8.21289 50.4219 8.63477C50.7422 9.05664 51.2148 9.26758 51.8398 9.26758C52.375 9.26758 52.9238 9.15234 53.4863 8.92188V9.7832C53.0566 10.0059 52.5156 10.1172 51.8633 10.1172ZM52.7305 11.6934C52.7305 12.0723 52.5801 12.3652 52.2793 12.5723C51.9824 12.7793 51.541 12.8828 50.9551 12.8828C50.7559 12.8828 50.5684 12.8652 50.3926 12.8301V12.209C50.5684 12.2402 50.7715 12.2559 51.002 12.2559C51.3105 12.2559 51.543 12.2168 51.6992 12.1387C51.8594 12.0605 51.9395 11.916 51.9395 11.7051C51.9395 11.5371 51.8613 11.4004 51.7051 11.2949C51.5527 11.1934 51.2637 11.1094 50.8379 11.043L51.3535 10H51.998L51.6758 10.6738C52.3789 10.8262 52.7305 11.166 52.7305 11.6934ZM60.5586 6.7832C60.5586 7.83008 60.2949 8.64844 59.7676 9.23828C59.2402 9.82422 58.5117 10.1172 57.582 10.1172C57.0078 10.1172 56.498 9.98242 56.0527 9.71289C55.6074 9.44336 55.2637 9.05664 55.0215 8.55273C54.7793 8.04883 54.6582 7.45898 54.6582 6.7832C54.6582 5.73633 54.9199 4.92188 55.4434 4.33984C55.9668 3.75391 56.6934 3.46094 57.623 3.46094C58.5215 3.46094 59.2344 3.75977 59.7617 4.35742C60.293 4.95508 60.5586 5.76367 60.5586 6.7832ZM55.666 6.7832C55.666 7.60352 55.8301 8.22852 56.1582 8.6582C56.4863 9.08789 56.9688 9.30273 57.6055 9.30273C58.2422 9.30273 58.7246 9.08984 59.0527 8.66406C59.3848 8.23438 59.5508 7.60742 59.5508 6.7832C59.5508 5.9668 59.3848 5.34766 59.0527 4.92578C58.7246 4.5 58.2383 4.28711 57.5938 4.28711C56.957 4.28711 56.4766 4.49609 56.1523 4.91406C55.8281 5.33203 55.666 5.95508 55.666 6.7832ZM58.5137 2.7168C58.3457 2.7168 58.1816 2.68164 58.0215 2.61133C57.8613 2.53711 57.7031 2.45703 57.5469 2.37109C57.3945 2.28125 57.2461 2.20117 57.1016 2.13086C56.9609 2.05664 56.8242 2.01953 56.6914 2.01953C56.4961 2.01953 56.3477 2.07812 56.2461 2.19531C56.1484 2.3125 56.0723 2.49023 56.0176 2.72852H55.4434C55.4941 2.25586 55.6309 1.88672 55.8535 1.62109C56.0801 1.35156 56.3711 1.2168 56.7266 1.2168C56.9062 1.2168 57.0801 1.25391 57.248 1.32812C57.416 1.39844 57.5762 1.47852 57.7285 1.56836C57.8809 1.6543 58.0273 1.73438 58.168 1.80859C58.3086 1.87891 58.4414 1.91406 58.5664 1.91406C58.7578 1.91406 58.9004 1.85742 58.9941 1.74414C59.0879 1.62695 59.1641 1.44727 59.2227 1.20508H59.8027C59.752 1.67773 59.6152 2.04883 59.3926 2.31836C59.1738 2.58398 58.8809 2.7168 58.5137 2.7168ZM64.9824 10.1172C64.0332 10.1172 63.2832 9.82812 62.7324 9.25C62.1855 8.67188 61.9121 7.86914 61.9121 6.8418C61.9121 5.80664 62.166 4.98438 62.6738 4.375C63.1855 3.76562 63.8711 3.46094 64.7305 3.46094C65.5352 3.46094 66.1719 3.72656 66.6406 4.25781C67.1094 4.78516 67.3438 5.48242 67.3438 6.34961V6.96484H62.9199C62.9395 7.71875 63.1289 8.29102 63.4883 8.68164C63.8516 9.07227 64.3613 9.26758 65.0176 9.26758C65.709 9.26758 66.3926 9.12305 67.0684 8.83398V9.70117C66.7246 9.84961 66.3984 9.95508 66.0898 10.0176C65.7852 10.084 65.416 10.1172 64.9824 10.1172ZM64.7188 4.27539C64.2031 4.27539 63.791 4.44336 63.4824 4.7793C63.1777 5.11523 62.998 5.58008 62.9434 6.17383H66.3008C66.3008 5.56055 66.1641 5.0918 65.8906 4.76758C65.6172 4.43945 65.2266 4.27539 64.7188 4.27539ZM73.1504 8.24805C73.1504 8.8457 72.9277 9.30664 72.4824 9.63086C72.0371 9.95508 71.4121 10.1172 70.6074 10.1172C69.7559 10.1172 69.0918 9.98242 68.6152 9.71289V8.81055C68.9238 8.9668 69.2539 9.08984 69.6055 9.17969C69.9609 9.26953 70.3027 9.31445 70.6309 9.31445C71.1387 9.31445 71.5293 9.23438 71.8027 9.07422C72.0762 8.91016 72.2129 8.66211 72.2129 8.33008C72.2129 8.08008 72.1035 7.86719 71.8848 7.69141C71.6699 7.51172 71.248 7.30078 70.6191 7.05859C70.0215 6.83594 69.5957 6.64258 69.3418 6.47852C69.0918 6.31055 68.9043 6.12109 68.7793 5.91016C68.6582 5.69922 68.5977 5.44727 68.5977 5.1543C68.5977 4.63086 68.8105 4.21875 69.2363 3.91797C69.6621 3.61328 70.2461 3.46094 70.9883 3.46094C71.6797 3.46094 72.3555 3.60156 73.0156 3.88281L72.6699 4.67383C72.0254 4.4082 71.4414 4.27539 70.918 4.27539C70.457 4.27539 70.1094 4.34766 69.875 4.49219C69.6406 4.63672 69.5234 4.83594 69.5234 5.08984C69.5234 5.26172 69.5664 5.4082 69.6523 5.5293C69.7422 5.65039 69.8848 5.76562 70.0801 5.875C70.2754 5.98438 70.6504 6.14258 71.2051 6.34961C71.9668 6.62695 72.4805 6.90625 72.7461 7.1875C73.0156 7.46875 73.1504 7.82227 73.1504 8.24805Z" fill="#989898"/>
</svg>
